<svg width="34" height="34" viewBox="0 0 34 34" fill="none" xmlns="http://www.w3.org/2000/svg">
<path d="M17 0C26.3888 0 34 7.61116 34 17C34 26.3888 26.3888 34 17 34C7.61116 34 0 26.3888 0 17C0 7.61116 7.61116 0 17 0ZM20.3633 17.4111C19.6049 14.7555 16.4472 13.6493 14.1973 15.251L10.4307 17.9316C7.78793 19.8131 8.36621 23.8931 11.4277 24.9658L16.4639 26.7295C19.5255 27.8021 22.5234 24.9758 21.6328 21.8564L20.3633 17.4111ZM25.5 16C24.1193 16 23 17.1193 23 18.5C23 19.8807 24.1193 21 25.5 21C26.8807 21 28 19.8807 28 18.5C28 17.1193 26.8807 16 25.5 16ZM8.5 11C7.11929 11 6 12.1193 6 13.5C6 14.8807 7.11929 16 8.5 16C9.88071 16 11 14.8807 11 13.5C11 12.1193 9.88071 11 8.5 11ZM22.5 9C21.1193 9 20 10.1193 20 11.5C20 12.8807 21.1193 14 22.5 14C23.8807 14 25 12.8807 25 11.5C25 10.1193 23.8807 9 22.5 9ZM15.5 7C14.1193 7 13 8.11929 13 9.5C13 10.8807 14.1193 12 15.5 12C16.8807 12 18 10.8807 18 9.5C18 8.11929 16.8807 7 15.5 7Z" fill="#6C5CE7"/>
</svg>
