<svg width="188" height="34" viewBox="0 0 188 34" fill="none" xmlns="http://www.w3.org/2000/svg">
<path d="M52.304 13.315L52.258 15.408V19.847C52.258 20.491 52.4573 20.9893 52.856 21.342C53.2547 21.6947 53.7223 21.871 54.259 21.871C54.7957 21.871 55.2557 21.6947 55.639 21.342C56.0377 20.9893 56.237 20.491 56.237 19.847V12.993C56.237 12.2723 56.329 11.7433 56.513 11.406C56.7123 11.0687 57.134 10.9 57.778 10.9H59.894C60.3847 10.9 60.722 11.0457 60.906 11.337C61.2587 11.8583 61.435 13.8747 61.435 17.386C61.435 18.536 61.4197 19.4177 61.389 20.031C61.343 21.273 61.0517 22.3847 60.515 23.366C59.9937 24.332 59.319 25.1063 58.491 25.689C56.8197 26.8697 54.926 27.46 52.81 27.46C50.0193 27.46 47.7117 26.8083 45.887 25.505C44.967 24.8457 44.2387 23.9717 43.702 22.883C43.1807 21.779 42.9123 20.4987 42.897 19.042C42.8817 18.3213 42.874 17.2633 42.874 15.868C42.874 14.4573 42.8893 13.4453 42.92 12.832C42.966 12.2033 43.0887 11.728 43.288 11.406C43.5027 11.0687 43.9243 10.9 44.553 10.9H50.694C51.3073 10.9 51.7137 11.061 51.913 11.383C52.1737 11.797 52.304 12.441 52.304 13.315ZM73.2286 24.033V25.965C73.2286 26.6243 72.7763 26.977 71.8716 27.023C70.9823 27.069 70.0086 27.092 68.9506 27.092C67.9079 27.092 66.7119 27.0537 65.3626 26.977C64.9179 26.9463 64.5576 26.793 64.2816 26.517C64.0209 26.241 63.8676 25.9267 63.8216 25.574C63.6989 24.2247 63.6376 22.1087 63.6376 19.226C63.6376 16.328 63.6836 14.2197 63.7756 12.901C63.8676 11.5823 64.5346 10.9153 65.7766 10.9C67.2026 10.8693 68.7283 10.854 70.3536 10.854C71.9789 10.854 73.7346 10.877 75.6206 10.923C77.5219 10.969 79.0706 11.682 80.2666 13.062C81.4626 14.442 82.0606 15.96 82.0606 17.616C82.0606 19.272 81.5316 20.6367 80.4736 21.71C79.4156 22.7833 77.8669 23.32 75.8276 23.32H74.0336C73.8343 23.32 73.6503 23.389 73.4816 23.527C73.3129 23.665 73.2286 23.8337 73.2286 24.033ZM73.2056 15.707L73.2516 19.962C73.2516 20.2533 73.4126 20.399 73.7346 20.399C74.6853 20.399 75.4289 20.1383 75.9656 19.617C76.5176 19.0803 76.7936 18.4517 76.7936 17.731C76.7936 17.0103 76.5329 16.3893 76.0116 15.868C75.5056 15.3467 74.7543 15.086 73.7576 15.086C73.3896 15.086 73.2056 15.293 73.2056 15.707ZM86.0754 10.9H92.2394C92.8834 10.9 93.305 11.061 93.5044 11.383C93.719 11.705 93.857 12.372 93.9184 13.384C93.995 14.3807 94.0334 16.328 94.0334 19.226C94.0334 22.1087 93.972 24.2247 93.8494 25.574C93.8034 25.9267 93.6424 26.241 93.3664 26.517C93.1057 26.793 92.753 26.9463 92.3084 26.977C91.4344 27.0383 90.4224 27.069 89.2724 27.069C88.1224 27.069 87.0337 27.0383 86.0064 26.977C85.5617 26.9463 85.2014 26.793 84.9254 26.517C84.6647 26.241 84.5114 25.9267 84.4654 25.574C84.3427 24.2247 84.2814 22.1087 84.2814 19.226C84.2814 16.328 84.312 14.3807 84.3734 13.384C84.45 12.372 84.588 11.705 84.7874 11.383C85.002 11.061 85.4314 10.9 86.0754 10.9ZM109.925 14.626C108.545 14.626 107.571 14.9863 107.004 15.707C106.452 16.4123 106.176 17.5393 106.176 19.088C106.176 21.526 106.889 22.745 108.315 22.745C108.606 22.745 108.798 22.7373 108.89 22.722C108.706 22.722 108.553 22.4 108.43 21.756C108.323 21.112 108.269 20.4373 108.269 19.732C108.269 19.0267 108.461 18.5743 108.844 18.375C109.227 18.1603 109.756 18.053 110.431 18.053C111.121 18.053 111.596 18.0607 111.857 18.076C112.133 18.076 112.44 18.1067 112.777 18.168C113.13 18.214 113.398 18.2907 113.582 18.398C114.011 18.6433 114.226 19.0113 114.226 19.502V22.86C114.226 24.056 114.011 25.0143 113.582 25.735C113.153 26.4403 112.348 26.8543 111.167 26.977C109.511 27.1457 106.981 27.23 103.577 27.23C102.212 27.23 101.039 27.0153 100.058 26.586C99.0921 26.1567 98.3408 25.5587 97.8041 24.792C96.8228 23.366 96.3321 21.5567 96.3321 19.364C96.3321 17.156 97.0374 15.1933 98.4481 13.476C99.8588 11.7587 101.737 10.8387 104.083 10.716C105.693 10.624 106.858 10.578 107.579 10.578C110.201 10.578 112.064 10.739 113.168 11.061C113.919 11.2757 114.295 11.8813 114.295 12.878C114.295 14.212 113.904 14.879 113.122 14.879C112.877 14.8637 112.386 14.8177 111.65 14.741C110.914 14.6643 110.339 14.626 109.925 14.626ZM131.818 11.981L139.339 24.7C139.646 25.206 139.799 25.6353 139.799 25.988C139.799 26.3253 139.661 26.5783 139.385 26.747C139.109 26.9157 138.787 27 138.419 27H131.013C130.262 27 129.779 26.862 129.564 26.586C129.503 26.494 129.418 26.333 129.311 26.103L128.644 24.677C128.445 24.2323 127.977 23.9793 127.241 23.918H122.894C122.572 23.918 122.327 23.9487 122.158 24.01C121.989 24.0713 121.851 24.2093 121.744 24.424L120.847 26.287C120.694 26.563 120.525 26.7547 120.341 26.862C120.157 26.954 119.889 27 119.536 27H117.466C116.868 27 116.546 26.7853 116.5 26.356C116.485 26.2947 116.477 26.2333 116.477 26.172C116.477 25.8193 116.592 25.482 116.822 25.16L124.021 12.464C124.711 11.268 125.83 10.67 127.379 10.67H129.219C130.446 10.67 131.312 11.107 131.818 11.981ZM124.366 17.869L123.308 19.962C123.247 20.1 123.216 20.2227 123.216 20.33C123.216 20.7287 123.408 20.928 123.791 20.928H125.884C126.206 20.928 126.428 20.8513 126.551 20.698C126.674 20.5293 126.735 20.3837 126.735 20.261C126.735 20.1383 126.712 20.0157 126.666 19.893L125.792 17.915C125.608 17.5163 125.37 17.317 125.079 17.317C124.788 17.317 124.55 17.501 124.366 17.869ZM150.034 12.096C150.601 12.8013 151.253 13.7137 151.989 14.833C152.725 15.937 153.238 16.673 153.53 17.041C153.821 17.409 154.051 17.593 154.22 17.593C154.404 17.593 154.565 17.4933 154.703 17.294C154.841 17.0947 155.347 16.328 156.221 14.994C157.095 13.66 157.815 12.648 158.383 11.958C158.95 11.2527 159.402 10.8923 159.74 10.877C160.077 10.8617 160.514 10.854 161.051 10.854C161.587 10.854 162.216 10.8693 162.937 10.9C163.657 10.9307 164.133 11.1223 164.363 11.475C164.608 11.8123 164.754 12.2953 164.8 12.924C164.892 14.534 164.938 16.673 164.938 19.341C164.938 21.9937 164.869 24.0867 164.731 25.62C164.7 25.988 164.562 26.3177 164.317 26.609C164.071 26.9003 163.734 27.046 163.305 27.046C162.369 27.0613 161.327 27.069 160.177 27.069C159.042 27.069 158.137 27.046 157.463 27C157.217 26.9847 156.995 26.8927 156.796 26.724C156.612 26.54 156.512 26.3023 156.497 26.011L156.359 22.216C156.343 21.848 156.259 21.641 156.106 21.595C155.968 21.549 155.837 21.6487 155.715 21.894C154.902 23.3353 153.89 24.9453 152.679 26.724C152.387 27.1687 152.004 27.391 151.529 27.391C151.053 27.391 150.662 27.1687 150.356 26.724C149.819 25.9573 148.907 24.332 147.619 21.848C147.542 21.6947 147.45 21.6027 147.343 21.572C147.251 21.5413 147.166 21.5797 147.09 21.687C147.013 21.7943 146.975 21.9707 146.975 22.216L146.86 26.011C146.844 26.3023 146.714 26.54 146.469 26.724C146.223 26.8927 145.94 26.9847 145.618 27H143.341C142.927 26.9847 142.589 26.839 142.329 26.563C142.083 26.287 141.938 25.9727 141.892 25.62C141.769 24.2553 141.708 22.1393 141.708 19.272C141.708 16.3893 141.746 14.2733 141.823 12.924C141.869 12.28 142.014 11.7817 142.26 11.429C142.505 11.0763 142.942 10.9 143.571 10.9C146.791 10.9 148.531 10.923 148.792 10.969C149.052 11.015 149.466 11.3907 150.034 12.096ZM169.403 27C168.974 27 168.606 26.862 168.299 26.586C168.008 26.2947 167.816 25.827 167.724 25.183C167.648 24.5237 167.609 22.5687 167.609 19.318C167.609 16.052 167.663 13.9207 167.77 12.924C167.893 11.636 168.437 10.9767 169.403 10.946C170.507 10.9153 175.084 10.9 183.134 10.9C184.039 10.9 184.491 11.475 184.491 12.625C184.491 13.5297 184.093 13.982 183.295 13.982H178.235C177.913 13.982 177.653 14.0893 177.453 14.304C177.269 14.5187 177.177 14.7947 177.177 15.132V16.788C177.177 17.248 177.384 17.478 177.798 17.478H181.984C182.23 17.478 182.414 17.501 182.536 17.547C182.674 17.593 182.797 17.731 182.904 17.961C183.012 18.1757 183.065 18.536 183.065 19.042C183.065 19.548 182.973 19.8853 182.789 20.054C182.621 20.2227 182.337 20.307 181.938 20.307H178.189C177.806 20.307 177.538 20.4067 177.384 20.606C177.246 20.79 177.177 21.0813 177.177 21.48V22.607C177.177 23.2663 177.492 23.596 178.12 23.596H183.847C184.123 23.596 184.369 23.6803 184.583 23.849C184.798 24.0023 184.905 24.355 184.905 24.907C184.905 25.4437 184.775 25.9267 184.514 26.356C184.254 26.7853 183.947 27 183.594 27H169.403Z" fill="url(#paint0_linear_7_53)"/>
<path d="M17 0C26.3888 0 34 7.61116 34 17C34 26.3888 26.3888 34 17 34C7.61116 34 0 26.3888 0 17C0 7.61116 7.61116 0 17 0ZM20.3633 17.4111C19.6049 14.7555 16.4472 13.6493 14.1973 15.251L10.4307 17.9316C7.78793 19.8131 8.36621 23.8931 11.4277 24.9658L16.4639 26.7295C19.5255 27.8021 22.5234 24.9758 21.6328 21.8564L20.3633 17.4111ZM25.5 16C24.1193 16 23 17.1193 23 18.5C23 19.8807 24.1193 21 25.5 21C26.8807 21 28 19.8807 28 18.5C28 17.1193 26.8807 16 25.5 16ZM8.5 11C7.11929 11 6 12.1193 6 13.5C6 14.8807 7.11929 16 8.5 16C9.88071 16 11 14.8807 11 13.5C11 12.1193 9.88071 11 8.5 11ZM22.5 9C21.1193 9 20 10.1193 20 11.5C20 12.8807 21.1193 14 22.5 14C23.8807 14 25 12.8807 25 11.5C25 10.1193 23.8807 9 22.5 9ZM15.5 7C14.1193 7 13 8.11929 13 9.5C13 10.8807 14.1193 12 15.5 12C16.8807 12 18 10.8807 18 9.5C18 8.11929 16.8807 7 15.5 7Z" fill="#6C5CE7"/>
<defs>
<linearGradient id="paint0_linear_7_53" x1="42" y1="16.5" x2="185.408" y2="17.3363" gradientUnits="userSpaceOnUse">
<stop stop-color="#6C5CE7"/>
<stop offset="1" stop-color="#FF8FBA"/>
</linearGradient>
</defs>
</svg>
